<svg width="61" height="63" viewBox="0 0 61 63" fill="none" xmlns="http://www.w3.org/2000/svg">
<g filter="url(#filter0_d_178_132)">
<path d="M41.4411 43.4303C50.5399 36.836 57.7217 28.0039 56.942 17.2217C56.7602 14.7164 56.0193 12.1793 54.418 10.2867C52.3369 7.82706 49.0271 6.74946 45.8633 6.80884C40.785 6.90385 36.0212 9.63472 32.3624 13.2694C28.7042 16.9041 25.9894 21.4095 23.3133 25.8637C23.9047 19.2606 22.8293 12.5062 20.2198 6.44631C18.9942 3.59792 17.07 0.625774 14.0952 0.0844749C10.2371 -0.616214 6.95945 3.16351 5.53447 6.92885C3.57271 12.1156 3.4885 18.0336 5.30183 23.2791C9.09025 34.2295 15.4354 43.4679 18.4241 55C25.143 52.7749 33.943 48.8619 41.4411 43.4303Z" fill="white"/>
</g>
<defs>
<filter id="filter0_d_178_132" x="0" y="0" width="61" height="63" filterUnits="userSpaceOnUse" color-interpolation-filters="sRGB">
<feFlood flood-opacity="0" result="BackgroundImageFix"/>
<feColorMatrix in="SourceAlpha" type="matrix" values="0 0 0 0 0 0 0 0 0 0 0 0 0 0 0 0 0 0 127 0" result="hardAlpha"/>
<feOffset dy="4"/>
<feGaussianBlur stdDeviation="2"/>
<feComposite in2="hardAlpha" operator="out"/>
<feColorMatrix type="matrix" values="0 0 0 0 0 0 0 0 0 0 0 0 0 0 0 0 0 0 0.25 0"/>
<feBlend mode="normal" in2="BackgroundImageFix" result="effect1_dropShadow_178_132"/>
<feBlend mode="normal" in="SourceGraphic" in2="effect1_dropShadow_178_132" result="shape"/>
</filter>
</defs>
</svg>
